<svg id="Слой_1" data-name="Слой 1" xmlns="http://www.w3.org/2000/svg" viewBox="0 0 910.05 446.82"><defs><style>.cls-1,.cls-3,.cls-4{fill:none;}.cls-1,.cls-3,.cls-4,.cls-7{stroke:#389df9;}.cls-1,.cls-3,.cls-4,.cls-6,.cls-7{stroke-miterlimit:10;}.cls-1{stroke-width:9.97px;}.cls-2{fill:#389df9;}.cls-3{stroke-width:14px;}.cls-4{stroke-width:12px;}.cls-5{font-size:24.16px;font-family:Tahoma;font-weight:700;}.cls-5,.cls-6,.cls-7,.cls-8{fill:#3ba6f4;}.cls-6{stroke:#3ba6f4;stroke-width:2.01px;}.cls-7{stroke-width:0.96px;}.cls-9{fill:#064d82;}.cls-10{fill:#056baa;}.cls-11{fill:#fff;}.cls-12{fill:#b2b2b2;}</style></defs><title>лого</title><path class="cls-1" d="M-92.46,360.52A37.79,37.79,0,0,0-115.13,353,37.86,37.86,0,0,0-153,390.87a37.87,37.87,0,0,0,37.87,37.88,37.8,37.8,0,0,0,26.79-11.09" transform="translate(291.36 13.08)"/><line class="cls-1" x1="201.62" y1="429.58" x2="162.37" y2="406.08"/><line class="cls-1" x1="197.62" y1="374.83" x2="162.37" y2="401.58"/><line class="cls-1" x1="162.37" y1="401.58" x2="162.37" y2="371.6"/><line class="cls-1" x1="162.37" y1="401.58" x2="162.37" y2="406.08"/><line class="cls-1" x1="162.37" y1="436.3" x2="162.37" y2="406.08"/><path class="cls-2" d="M-92.7,366.33l6.95-4.58" transform="translate(291.36 13.08)"/><path class="cls-2" d="M-92.51,366.65l6.95-4.58c0.4-.26,0-0.91-0.38-0.65L-92.89,366c-0.4.26,0,.91,0.38,0.65h0Z" transform="translate(291.36 13.08)"/><path class="cls-2" d="M-90.95,358.18l-1.32.82a16.77,16.77,0,0,1,1.11,4,1,1,0,0,0,.45-0.86,7,7,0,0,0-.37-2.59,7.12,7.12,0,0,0,1.52,2.64,6.32,6.32,0,0,0-.05-2,4.88,4.88,0,0,0,.6.7,15.69,15.69,0,0,0-.42-1.75,5.9,5.9,0,0,0,1.33,1.54L-89.21,359A4.21,4.21,0,0,1-90.95,358.18Z" transform="translate(291.36 13.08)"/><path class="cls-2" d="M-91.13,357.86l-1.32.82a0.38,0.38,0,0,0-.17.42,18.16,18.16,0,0,1,1.11,4,0.38,0.38,0,0,0,.55.22c1.13-.8.6-2.77,0.25-3.87l-0.72.2a8.24,8.24,0,0,0,1.62,2.8,0.38,0.38,0,0,0,.64-0.27,7.78,7.78,0,0,0-.07-2.09l-0.69.29a8,8,0,0,0,.66.77,0.38,0.38,0,0,0,.63-0.36c-0.11-.59-0.26-1.17-0.42-1.75l-0.69.29a7.08,7.08,0,0,0,1.39,1.62c0.3,0.26.85-.08,0.59-0.45a8.56,8.56,0,0,0-1.19-1.72,1.31,1.31,0,0,0-.48-0.18,4.67,4.67,0,0,1-1.32-.73c-0.38-.29-0.76.36-0.38,0.65a12.17,12.17,0,0,0,1.5.81,4.86,4.86,0,0,1,1.22,1.56l0.59-.45a6.38,6.38,0,0,1-1.28-1.47,0.38,0.38,0,0,0-.69.29c0.17,0.58.31,1.16,0.42,1.75l0.63-.36a4.52,4.52,0,0,1-.55-0.62,0.38,0.38,0,0,0-.69.29,7.07,7.07,0,0,1,0,1.9l0.64-.27a7.24,7.24,0,0,1-1.43-2.47,0.38,0.38,0,0,0-.72.2c0.21,0.65.81,2.52,0.09,3l0.55,0.22a18.16,18.16,0,0,0-1.11-4l-0.17.42,1.32-.82A0.38,0.38,0,0,0-91.13,357.86Z" transform="translate(291.36 13.08)"/><path class="cls-2" d="M-91.79,361.16l-0.66-1.92,0.14,1.3a2.46,2.46,0,0,0-.27-0.23l0.34,0.93,0,0.39a4.16,4.16,0,0,0-.73-1.31c0,0.09,0,.18,0,0.26a5.57,5.57,0,0,0-1.2-1.31A7.91,7.91,0,0,0-92,364.55a2.73,2.73,0,0,0,.61-1.55,0.34,0.34,0,0,0,.23,0l-0.24-.69A3.11,3.11,0,0,0-91.79,361.16Z" transform="translate(291.36 13.08)"/><path class="cls-2" d="M-91.43,361.06l-0.66-1.92c-0.13-.37-0.79-0.35-0.74.1l0.14,1.3,0.64-.27-0.27-.23c-0.26-.22-0.77,0-0.63.36a5.39,5.39,0,0,1,.37,1.22l0.74-.1a5.66,5.66,0,0,0-.83-1.47,0.38,0.38,0,0,0-.63.17l0,0.26,0.69-.09A7.18,7.18,0,0,0-93.91,359a0.38,0.38,0,0,0-.64.27,8.59,8.59,0,0,0,2.28,5.55,0.38,0.38,0,0,0,.59-0.08A3.38,3.38,0,0,0-91,363.1l-0.36.28h0.23a0.38,0.38,0,0,0,.36-0.47,13.5,13.5,0,0,0-.67-1.93,0.38,0.38,0,0,0-.65.38,12.44,12.44,0,0,1,.59,1.75l0.36-.47h-0.23a0.38,0.38,0,0,0-.36.28,3,3,0,0,1-.58,1.46l0.59-.08a7.76,7.76,0,0,1-2.06-5l-0.64.27a6.37,6.37,0,0,1,1.14,1.24,0.38,0.38,0,0,0,.69-0.09l0-.26-0.63.17a4.28,4.28,0,0,1,.64,1.14c0.14,0.36.79,0.36,0.74-.1a5.85,5.85,0,0,0-.4-1.42l-0.63.36,0.27,0.23a0.38,0.38,0,0,0,.64-0.27l-0.14-1.3-0.74.1,0.66,1.92C-92,361.71-91.28,361.51-91.43,361.06Z" transform="translate(291.36 13.08)"/><path class="cls-2" d="M-87.72,360.33l-1.14-1.23-0.22,0a4.19,4.19,0,0,1-1.88-.91,7.8,7.8,0,0,0,.12.78c-0.05-.06-0.1-0.12-0.16-0.18a5.59,5.59,0,0,0,0,3,4.34,4.34,0,0,0-.68,3.2,5.71,5.71,0,0,0,1.36-1.49,1.37,1.37,0,0,0,0,.32,10.09,10.09,0,0,0,2-1.73,0.63,0.63,0,0,0,.92.57,1,1,0,0,0,.38-1.2A3,3,0,0,0-87.72,360.33Z" transform="translate(291.36 13.08)"/><path class="cls-2" d="M-87.46,360.07a6.58,6.58,0,0,0-1.26-1.3,4,4,0,0,0-.68-0.16,4.62,4.62,0,0,1-1.38-.76,0.38,0.38,0,0,0-.56.32c0,0.31.08,0.57,0.13,0.88l0.63-.36-0.16-.18a0.38,0.38,0,0,0-.63.17c-0.26,1.14.09,2.4-.24,3.46A6.06,6.06,0,0,0-92,365a0.38,0.38,0,0,0,.64.27A7.31,7.31,0,0,0-90,363.67l-0.7-.19v0.32a0.38,0.38,0,0,0,.56.32,12.33,12.33,0,0,0,2.1-1.79l-0.64-.27a1,1,0,0,0,1.52.87c1.21-.69.28-2.19-0.34-2.87-0.32-.36-0.85.17-0.53,0.53q1,0.63.09,1.47a0.38,0.38,0,0,0-.64-0.27,11.5,11.5,0,0,1-1.95,1.67l0.56,0.32v-0.32a0.38,0.38,0,0,0-.7-0.19,6.53,6.53,0,0,1-1.3,1.41l0.64,0.27a4.6,4.6,0,0,1,0-1.57c0.11-.5.59-1,0.64-1.49,0.1-1-.25-2,0-3.05l-0.63.17,0.16,0.18a0.38,0.38,0,0,0,.63-0.36l-0.11-.68-0.56.32a6.41,6.41,0,0,0,1.55.84A4.23,4.23,0,0,1-88,360.6,0.38,0.38,0,0,0-87.46,360.07Z" transform="translate(291.36 13.08)"/><path class="cls-2" d="M-86.77,361.07a11.62,11.62,0,0,1-2-1.95l-0.34-.05c-0.13,0-.24-0.07-0.36-0.1l0.52,1.54A9.49,9.49,0,0,1-90.1,364l3.11-1.46a1,1,0,0,0,.74-0.8A1.05,1.05,0,0,0-86.77,361.07Z" transform="translate(291.36 13.08)"/><path class="cls-2" d="M-86.51,360.81A12.61,12.61,0,0,1-88,359.39a1.88,1.88,0,0,0-1.32-.78,0.38,0.38,0,0,0-.46.46,7.54,7.54,0,0,1,.48,1.44,6.86,6.86,0,0,1-1.11,3.33,0.38,0.38,0,0,0,.51.51l2.75-1.29c1.05-.5,1.8-1.31.66-2.26-0.37-.31-0.9.22-0.53,0.53,0.85,0.71-1,1.3-1.43,1.51l-1.82.86,0.51,0.51a7.5,7.5,0,0,0,1.22-3.76,8.31,8.31,0,0,0-.52-1.59l-0.46.46c1,0.28,1.69,1.36,2.5,2C-86.66,361.64-86.13,361.11-86.51,360.81Z" transform="translate(291.36 13.08)"/><path class="cls-2" d="M-89.22,362.44a3.72,3.72,0,0,1-2,2.37,0.45,0.45,0,0,0-.35.4c0,0.19.4,0,.21-0.08" transform="translate(291.36 13.08)"/><path class="cls-2" d="M-89.58,362.34a3.43,3.43,0,0,1-.85,1.47,3.3,3.3,0,0,1-.67.53,2.39,2.39,0,0,0-.64.4,0.51,0.51,0,1,0,.82.52,0.38,0.38,0,0,0-.17-0.42l-0.05,0c-0.39-.28-0.77.37-0.38,0.65l0.05,0-0.17-.42c-0.14.44,0.69,0.05,0.78,0a4.22,4.22,0,0,0,.41-0.25,4.07,4.07,0,0,0,.72-0.65,4.27,4.27,0,0,0,.88-1.62,0.38,0.38,0,0,0-.72-0.2h0Z" transform="translate(291.36 13.08)"/><path class="cls-2" d="M-91.33,356.57a15.86,15.86,0,0,0,1.85,1.91" transform="translate(291.36 13.08)"/><path class="cls-2" d="M-91.6,356.83a16.94,16.94,0,0,0,1.85,1.91c0.36,0.32.89-.21,0.53-0.53a16.94,16.94,0,0,1-1.85-1.91c-0.31-.37-0.84.16-0.53,0.53h0Z" transform="translate(291.36 13.08)"/><path class="cls-2" d="M-90.73,356.22a17.64,17.64,0,0,1,4.72,5" transform="translate(291.36 13.08)"/><path class="cls-2" d="M-90.92,356.54a17.87,17.87,0,0,1,4.59,4.9,0.38,0.38,0,0,0,.65-0.38,18.85,18.85,0,0,0-4.85-5.17c-0.39-.28-0.77.37-0.38,0.65h0Z" transform="translate(291.36 13.08)"/><path class="cls-2" d="M-90.41,357.39l2,1.78a14.16,14.16,0,0,0-2-2.22l1.93,1.53" transform="translate(291.36 13.08)"/><path class="cls-2" d="M-90.68,357.66l2,1.78c0.3,0.26.86-.09,0.59-0.45a15.46,15.46,0,0,0-2.08-2.3l-0.53.53,1.93,1.53c0.37,0.3.91-.23,0.53-0.53l-1.93-1.53c-0.37-.29-0.9.2-0.53,0.53a14.52,14.52,0,0,1,2,2.15l0.59-.45-2-1.78c-0.36-.32-0.89.21-0.53,0.53h0Z" transform="translate(291.36 13.08)"/><line class="cls-3" x1="199.68" y1="379.79" x2="195.65" y2="374.32"/><path class="cls-2" d="M-87.54,423.22l1.56-2c0.3-.37-0.23-0.91-0.53-0.53l-1.56,2c-0.3.37,0.23,0.91,0.53,0.53h0Z" transform="translate(291.36 13.08)"/><path class="cls-2" d="M-89,359.53a4.14,4.14,0,0,1,.36.55,0.55,0.55,0,0,0,.58.1,0.51,0.51,0,0,0,0-.9,0.38,0.38,0,0,0-.51.51,2.32,2.32,0,0,0,.62.77,0.38,0.38,0,0,0,.63-0.36l-0.2-.79a0.38,0.38,0,0,0-.72.2,0.62,0.62,0,0,0,.84.47,0.39,0.39,0,0,0,.28-0.36,0.66,0.66,0,0,0-.64-0.77,0.51,0.51,0,0,0-.4.77,0.38,0.38,0,0,0,.65-0.38l0-.06,0,0.29-0.36.15,0.28-.36,0.08,0.05-0.72.2,0.2,0.79,0.63-.36a1.83,1.83,0,0,1-.5-0.62l-0.51.51,0.06,0-0.17-.22q0.43-.13.27-0.4a1.11,1.11,0,0,0-.09-0.19,0.67,0.67,0,0,0-.3-0.26c-0.44-.2-0.82.45-0.38,0.65h0Z" transform="translate(291.36 13.08)"/><path class="cls-2" d="M-86.83,421.54a0.38,0.38,0,0,0,0-.75,0.38,0.38,0,0,0,0,.75h0Z" transform="translate(291.36 13.08)"/><path class="cls-2" d="M-86.67,421.88h0.33a0.38,0.38,0,0,0,0-.75h-0.33a0.38,0.38,0,0,0,0,.75h0Z" transform="translate(291.36 13.08)"/><path class="cls-2" d="M-86.14,421.83l1.36-.79a0.38,0.38,0,0,0-.38-0.65l-1.36.79a0.38,0.38,0,0,0,.38.65h0Z" transform="translate(291.36 13.08)"/><path class="cls-2" d="M-85.56,421.05a3.13,3.13,0,0,0,1.55-1.2c0.28-.4-0.37-0.77-0.65-0.38a2.27,2.27,0,0,1-1.1.85c-0.45.17-.25,0.89,0.2,0.72h0Z" transform="translate(291.36 13.08)"/><path class="cls-2" d="M-85.32,421.48A6.21,6.21,0,0,0-83.85,420c0.28-.39-0.37-0.77-0.65-0.38a5.13,5.13,0,0,1-1.2,1.19c-0.39.28,0,.93,0.38,0.65h0Z" transform="translate(291.36 13.08)"/><path class="cls-2" d="M-85,421.13a26,26,0,0,0,3.31-4.8,0.38,0.38,0,0,0-.65-0.38,25.11,25.11,0,0,1-3.19,4.65c-0.31.36,0.21,0.9,0.53,0.53h0Z" transform="translate(291.36 13.08)"/><path class="cls-2" d="M-88.51,412.65l1.34,1c0.39,0.29.76-.36,0.38-0.65l-1.34-1c-0.39-.29-0.76.36-0.38,0.65h0Z" transform="translate(291.36 13.08)"/><path class="cls-2" d="M-88.09,412.76a2.64,2.64,0,0,0,1.15.62,0.38,0.38,0,0,0,.2-0.72,1.81,1.81,0,0,1-.82-0.43c-0.36-.32-0.89.21-0.53,0.53h0Z" transform="translate(291.36 13.08)"/><path class="cls-2" d="M-88,412.56l5.37,4c0.39,0.29.76-.36,0.38-0.65l-5.37-4c-0.39-.29-0.76.36-0.38,0.65h0Z" transform="translate(291.36 13.08)"/><path class="cls-2" d="M-91.16,414.48a22,22,0,0,0,3.69,3.73c0.37,0.3.91-.22,0.53-0.53a15.23,15.23,0,0,1-3-3.33l-0.65.38a22.4,22.4,0,0,0,4.6,5,0.38,0.38,0,0,0,.59-0.45,11.37,11.37,0,0,0-3.8-4.17,0.38,0.38,0,0,0-.55.42A8.27,8.27,0,0,0-87.9,419c0.38,0.41,1.32,1.5,2,.88s-0.13-1.77-.34-2.27a11.8,11.8,0,0,0-2.61-3.75,0.38,0.38,0,0,0-.63.36,7.67,7.67,0,0,0,2.82,4c0.51,0.41,1.28,1,1.64.07s-0.89-2.46-1.46-3.13c-0.4-.48-1.95-2.42-2.74-1.84-1.3.95,2.64,5.21,3.83,5.15,0.85,0,.83-0.85.63-1.45a6.51,6.51,0,0,0-3.12-3.33,0.38,0.38,0,0,0-.51.51c1,1.52,2,3,3.83,3.58a0.38,0.38,0,0,0,.46-0.46,7.44,7.44,0,0,0-3.48-3.86A0.38,0.38,0,0,0-88,414a14.65,14.65,0,0,0,3.85,3.26,0.38,0.38,0,0,0,.45-0.59,14.14,14.14,0,0,0-4.36-3.28c-0.43-.21-0.81.42-0.38,0.65q2.27,1.2,4.43,2.58a0.38,0.38,0,0,0,.45-0.59,12.06,12.06,0,0,0-3.78-2.62,0.38,0.38,0,0,0-.38.65,31.36,31.36,0,0,0,3.68,2.32,0.38,0.38,0,0,0,.45-0.59,12.71,12.71,0,0,0-4-2.62,0.38,0.38,0,0,0-.42.55,29.68,29.68,0,0,0,2.4,3.18,0.38,0.38,0,0,0,.59-0.45c-0.51-.72-2.43-3.24-3.53-2.53s0.6,3.27,1.07,4c0.27,0.4.92,0,.65-0.38a11.35,11.35,0,0,1-.68-1.14,6.22,6.22,0,0,1-.61-1.55c0.29-.64,2.32,1.82,2.45,2l0.59-.45a28.2,28.2,0,0,1-2.28-3l-0.42.55a11.7,11.7,0,0,1,3.65,2.43l0.45-.59a31.36,31.36,0,0,1-3.68-2.32l-0.38.65a11.58,11.58,0,0,1,3.62,2.51l0.45-.59q-2.16-1.39-4.43-2.58l-0.38.65a13.62,13.62,0,0,1,4.21,3.16l0.45-.59a14.08,14.08,0,0,1-3.7-3.14L-88,414a6.68,6.68,0,0,1,3.13,3.41l0.46-.46a7.17,7.17,0,0,1-3.38-3.23l-0.51.51a6.49,6.49,0,0,1,1.7,1.28c0.18,0.19,1.57,1.85.5,1.69-0.44-.07-2.79-3-2.61-3.16s2.93,2.62,2.61,3.31c-0.2.43-.47-0.1-0.73-0.35s-0.42-.41-0.62-0.62A5.55,5.55,0,0,1-88.77,414l-0.63.36c1.08,1.06,2.56,2.77,2.78,4.35,0.06,0.45.2,0.5-.29,0.19a4.15,4.15,0,0,1-.86-0.94A7.52,7.52,0,0,1-89,415.35l-0.55.42a10.6,10.6,0,0,1,3.53,3.9l0.59-.45A21.76,21.76,0,0,1-90,414.35c-0.27-.4-0.92,0-0.65.38a15.87,15.87,0,0,0,3.14,3.48l0.53-.53a22,22,0,0,1-3.69-3.73c-0.3-.38-0.82.15-0.53,0.53h0Z" transform="translate(291.36 13.08)"/><path class="cls-2" d="M-87.74,416.41a9.54,9.54,0,0,0,2.37,1.86,0.38,0.38,0,0,0,.51-0.51,11,11,0,0,0-1-1.74,0.38,0.38,0,0,0-.69.29,5,5,0,0,0,1.6,2.54,0.38,0.38,0,0,0,.64-0.27,1.1,1.1,0,0,0-1.79-.83,1.53,1.53,0,0,0,0,2.55,1,1,0,0,0,1.46-1.11,0.85,0.85,0,0,0-1.62.05,0.38,0.38,0,0,0,.55.42,3.26,3.26,0,0,0,1.85-2.23,0.38,0.38,0,0,0-.55-0.42,1.53,1.53,0,0,0-.65,1.73,0.38,0.38,0,0,0,.55.22,2.54,2.54,0,0,0,1.38-1.83,0.38,0.38,0,0,0-.69-0.29l-0.44.8a0.38,0.38,0,0,0,.59.45,3.22,3.22,0,0,0,1.21-2.05,0.38,0.38,0,0,0-.72-0.2A4.28,4.28,0,0,1-85,418l0.45,0.59,0.84-1.07-0.59-.45-1.23,2.08,0.65,0.38,0.92-1.62c0.19-.34.59-1.43,1-1.51a0.38,0.38,0,0,0,.09-0.69,2.14,2.14,0,0,0-1.06-.2,0.38,0.38,0,0,0-.37.38,3.92,3.92,0,0,1-.55,2.14,5,5,0,0,0-.44.62c-0.16.39-.08,0.76-0.29,1.17a0.38,0.38,0,0,0,.65.38l0.27-.46a0.38,0.38,0,0,0-.65-0.38l-0.27.46,0.65,0.38a5.37,5.37,0,0,0,.34-1,5.19,5.19,0,0,1,.53-1,4.76,4.76,0,0,0,.51-2.27l-0.37.38,0.68,0.1,0.09-.69c-0.67.13-.79,0.7-1.11,1.26l-1.25,2.21a0.38,0.38,0,0,0,.65.38l1.23-2.08c0.21-.35-0.32-0.8-0.59-0.45L-85.06,418c-0.24.31,0.06,0.83,0.45,0.59a5.12,5.12,0,0,0,2.12-2.55l-0.72-.2a2.66,2.66,0,0,1-1,1.72l0.59,0.45,0.44-.8-0.69-.29a1.86,1.86,0,0,1-1,1.38l0.55,0.22a0.72,0.72,0,0,1,.31-0.89l-0.55-.42a2.55,2.55,0,0,1-1.5,1.78l0.55,0.42q-0.74-.33-0.34-0.78,0.17-.58.83-0.09l0.64-.27a4.27,4.27,0,0,1-1.4-2.21l-0.69.29a11,11,0,0,1,1,1.74l0.51-.51a8.92,8.92,0,0,1-2.22-1.75,0.38,0.38,0,0,0-.53.53h0Z" transform="translate(291.36 13.08)"/><path class="cls-2" d="M-85,418.17v1.5a0.38,0.38,0,0,0,.74.1,0.46,0.46,0,0,1,.36-0.4,0.38,0.38,0,0,0-.2-0.72,1.16,1.16,0,0,0-.88.93l0.74,0.1v-1.5a0.38,0.38,0,0,0-.75,0h0Z" transform="translate(291.36 13.08)"/><line class="cls-4" x1="202.99" y1="428.94" x2="204.91" y2="425.62"/><text class="cls-5" transform="translate(524.55 224.94)">СОЦИАЛЬНЫЙ <tspan x="0" y="28.99">КАБИНЕТ</tspan></text><path class="cls-6" d="M-37.45,102.71a87.18,87.18,0,0,1-53,32.51A87.57,87.57,0,0,1-192.73,65.45,87.06,87.06,0,0,1-189.93,22c0.61-2.73,1.36-5.45,2.2-8.16a87.2,87.2,0,0,0-12.06,63A87.57,87.57,0,0,0-97.47,146.64,87.37,87.37,0,0,0-36.31,101.4C-36.69,101.84-37.06,102.28-37.45,102.71Z" transform="translate(291.36 13.08)"/><path class="cls-7" d="M-75.92,14.51A41.74,41.74,0,0,1-79,44.1a41.93,41.93,0,0,1-56.32,18.53A41.68,41.68,0,0,1-151,48.9c-0.86-1-1.68-2.1-2.46-3.21a41.75,41.75,0,0,0,20.43,23A41.93,41.93,0,0,0-76.73,50.11a41.83,41.83,0,0,0,.64-36.42C-76,14-76,14.24-75.92,14.51Z" transform="translate(291.36 13.08)"/><path class="cls-8" d="M-174.65,106.52c25.72,15.21,60.07,14.39,85-2s39.32-47.64,35.55-77.28A130.93,130.93,0,0,1-78.85,135.54" transform="translate(291.36 13.08)"/><path class="cls-2" d="M-174.8,106.78C-143.23,125-101,120-75.75,93.21a83.84,83.84,0,0,0,22-46.67,78.36,78.36,0,0,0,.54-13.38c0-.64-0.81-6.36-0.61-3.52,0.23,3.34,1.24,6.81,1.63,10.15a129.2,129.2,0,0,1,.06,29.42,131.15,131.15,0,0,1-26.89,66.12c-0.24.3,0.19,0.73,0.43,0.43A132,132,0,0,0-53.78,27.13c-0.07-.33-0.63-0.26-0.59.08,3.42,29.16-9.84,59.48-34.16,76.18-25.18,17.3-59.67,18-86,2.87a0.3,0.3,0,0,0-.3.52h0Z" transform="translate(291.36 13.08)"/><path class="cls-8" d="M-143.24,120.24c-11.05-.2-21.51-6.2-28.62-14.67S-183,86.39-185,75.52c-5.86-32.09,6.31-66.86,30.88-88.31a70.41,70.41,0,0,0-8.61,61.29,70.41,70.41,0,0,0,43.82,43.71" transform="translate(291.36 13.08)"/><path class="cls-2" d="M-143.24,119.94c-24.15-1-37.83-23.69-41.57-45.25A95.73,95.73,0,0,1-176.28,17,94.44,94.44,0,0,1-159.41-7.31c1.07-1.11,2.92-3.71,4.39-4.25-1.25.46-2.42,3.55-3.08,4.78a69.59,69.59,0,0,0-5.26,12.62,70,70,0,0,0,3.72,50.9A71.35,71.35,0,0,0-119,92.51c0.37,0.13.53-.46,0.16-0.58a70.51,70.51,0,0,1-42.88-41.44c-7.79-20.86-4.48-44.73,7.84-63.12,0.2-.3-0.23-0.58-0.47-0.37a97.53,97.53,0,0,0-32.42,73.34c0.29,26.07,13.24,58.89,43.48,60.2a0.3,0.3,0,0,0,0-.6h0Z" transform="translate(291.36 13.08)"/><path class="cls-8" d="M-101.52,78.68a223.06,223.06,0,0,1-22.7,27.6c14,1.23,27.87-5,38.2-14.44S-68.55,69.92-63,57.07" transform="translate(291.36 13.08)"/><path class="cls-2" d="M-101.78,78.53a233.85,233.85,0,0,1-22.65,27.54,0.31,0.31,0,0,0,.21.52c30.49,2.07,50.5-24.34,61.52-49.37,0.16-.35-0.37-0.66-0.52-0.3-7.83,17.77-18.87,35.57-37,44.26a49.65,49.65,0,0,1-14.44,4.5c-1.63.23-5.6,1.21-7.15,0.44-2-1,1.4-3.42,2.69-4.84a230.73,230.73,0,0,0,17.86-22.44c0.22-.32-0.3-0.62-0.52-0.3h0Z" transform="translate(291.36 13.08)"/><polygon class="cls-9" points="60.95 394.25 12.95 381.78 12.95 335.59 60.95 346.25 60.95 394.25"/><polygon class="cls-10" points="108.94 382.92 60.95 394.25 60.95 346.25 108.94 335.59 108.94 382.92"/><polygon class="cls-10" points="73.45 319.96 37.26 335.89 19.81 331.7 58.97 315.41 73.45 319.96"/><polygon class="cls-10" points="47.35 321.8 84.72 334.75 101.77 329.16 61.42 316.09 47.35 321.8"/><rect class="cls-10" x="53.95" y="318.59" width="12.67" height="22.87"/><path class="cls-11" d="M-234.74,376.84c-3.6,1-8.27.88-14-.31-7.31-1.53-13-4.85-17-9.93a26.9,26.9,0,0,1-5.72-17.68c0.11-7.16,2.38-12.55,6.81-16.26s10.25-5.06,17.49-4A38.83,38.83,0,0,1-235.44,332l0.16,10a24.8,24.8,0,0,0-10.91-4.49c-4.37-.69-7.87.09-10.51,2.33s-4,5.63-4,10.23A17.54,17.54,0,0,0-257,361.49a17,17,0,0,0,10.39,6.1,20.81,20.81,0,0,0,11.72-.8Z" transform="translate(291.36 13.08)"/><path class="cls-11" d="M-193.23,372.25l-12.66,3-13.5-18.41a16.34,16.34,0,0,1-1.21-2.37l-0.15,0,0.47,24.1-10.14,2.37-0.27-47.87,9.49-2.11,0.42,21.72,0.15,0q0.34-1,1.15-2.91l11.16-21.65,11.19-2.49-13.81,25Z" transform="translate(291.36 13.08)"/><path class="cls-8" d="M-291,381" transform="translate(291.36 13.08)"/><path class="cls-8" d="M-291,381.38a0.38,0.38,0,0,0,0-.75,0.38,0.38,0,0,0,0,.75h0Z" transform="translate(291.36 13.08)"/><path class="cls-12" d="M-148,204.64c-0.73,1.19-1.47,2.37-2.18,3.57a95.09,95.09,0,0,0-7.11,14.9A65.78,65.78,0,0,0-161,238a50,50,0,0,0,5.19,30.33,59.44,59.44,0,0,0,12,15.51,94.68,94.68,0,0,0,22.2,15.31c3.56,1.83,7.24,3.43,10.88,5.1a1.4,1.4,0,0,0,1,0A128.51,128.51,0,0,0-86.8,292.06a72.11,72.11,0,0,0,18.4-17.52,49.62,49.62,0,0,0,8.92-21.84A57.07,57.07,0,0,0-61,229.86c-0.53-2-1.16-4.05-1.85-6a87.72,87.72,0,0,0-9.65-19.28,0.94,0.94,0,0,0-.67-0.35,7.34,7.34,0,0,1-6.67-4.06A22.07,22.07,0,0,1-82.5,191c0-.12,0-0.23,0-0.48,0.7,0.31,1.34.58,2,.88a25.75,25.75,0,0,1,7.33,4.85,7.07,7.07,0,0,1,2.4,6c-0.12,1-.24,2-1.75,1.83l1,1.53a88.34,88.34,0,0,1,8.45,15.69,71.31,71.31,0,0,1,4.69,16,57.27,57.27,0,0,1,.51,14.25c-1.06,11.08-5.49,20.7-12.56,29.19A85.55,85.55,0,0,1-91,298.23a138.09,138.09,0,0,1-14.38,7.86c-0.08,0-.16.1-0.33,0.21a216.59,216.59,0,0,0,23.46,7.59c-0.38,1.23-.72,2.38-1.08,3.53a0.49,0.49,0,0,1-.73.32c-2.26-.73-4.53-1.41-6.78-2.16-1.79-.59-3.55-1.25-5.32-1.89-3.07-1.12-6.15-2.22-9.21-3.38-1.45-.55-2.86-1.22-4.31-1.79a1.51,1.51,0,0,0-1,0c-4.59,1.77-9.16,3.63-13.77,5.35-2.92,1.09-5.91,2-8.88,2.94-1.16.38-2.34,0.69-3.6,1.06l-1.14-4a227.33,227.33,0,0,0,23.47-7.58l-2.66-1.34a109.79,109.79,0,0,1-24.62-16c-2.5-2.22-4.77-4.71-7.06-7.16a52.35,52.35,0,0,1-10.09-16,49.71,49.71,0,0,1-3.47-14.24,59.24,59.24,0,0,1,2.94-24.14,88.36,88.36,0,0,1,11-22.24c0.14-.21.3-0.39,0.46-0.59Z" transform="translate(291.36 13.08)"/><path class="cls-12" d="M-47.71,221.27a20.33,20.33,0,0,1-.57,8.63,14.62,14.62,0,0,1-2.79,5.55,6.22,6.22,0,0,1-3.68,1.92,0.64,0.64,0,0,1-.48-0.05c-0.79-.91-1.83-1.6-2.08-3A7.91,7.91,0,0,1-56.16,229a20,20,0,0,1,7.52-7.35,2.81,2.81,0,0,1,.46-0.17Z" transform="translate(291.36 13.08)"/><path class="cls-12" d="M-43,251.16c-0.63,1.28-1.27,2.53-1.86,3.8-0.15.33-.13,0.74-0.3,1.05-1.66,3.09-3.82,5.67-7.41,6.51a7.16,7.16,0,0,1-3-.05,6,6,0,0,1-1.91-1.15,0.81,0.81,0,0,1-.11-0.54,6.23,6.23,0,0,1,1.58-4.1c3.29-4.06,7.84-5.15,12.68-5.64A1.4,1.4,0,0,1-43,251.16Z" transform="translate(291.36 13.08)"/><path class="cls-12" d="M-176.82,251.43c0.79,0.16,1.59.29,2.38,0.49a28.87,28.87,0,0,1,7.35,2.67A12.42,12.42,0,0,1-165,256a7,7,0,0,1,2.34,5.94,1.22,1.22,0,0,1-.64.83,6.8,6.8,0,0,1-7.81-1.4,22.82,22.82,0,0,1-3.9-5.05,17,17,0,0,1-.82-2.21c-0.35-.83-0.76-1.63-1.15-2.44Z" transform="translate(291.36 13.08)"/><path class="cls-12" d="M-76.41,226.43c1,0.05,2,0,2.9.17,2.09,0.27,4.18.61,6.26,0.93a1.86,1.86,0,0,1,.55.26c0.3,0.16.53,0.6,1,.2a0.41,0.41,0,0,1,.26.08,13.71,13.71,0,0,1,1.95,1.2,7.42,7.42,0,0,1,1.76,2,8.33,8.33,0,0,1,.71,2.55c0.11,0.6.27,1.55,0,1.79a4.48,4.48,0,0,1-2.29.76,14,14,0,0,1-3.19-.14,9.27,9.27,0,0,1-4.81-2.59,22.26,22.26,0,0,1-5-6.84A1.38,1.38,0,0,1-76.41,226.43Z" transform="translate(291.36 13.08)"/><path class="cls-12" d="M-172.46,220.94a35.31,35.31,0,0,1,6.11,4.93,13.35,13.35,0,0,1,3.07,4.48,6.42,6.42,0,0,1-.22,5.24,1,1,0,0,1-.93.65c-3.44.25-5.8-1.44-7.15-4.73a19.5,19.5,0,0,1-1.17-8.67c0-.51.09-1,0.14-1.52A1.81,1.81,0,0,1-172.46,220.94Z" transform="translate(291.36 13.08)"/><path class="cls-12" d="M-54.77,283c-0.45.41-.73,0.7-1,1a31.81,31.81,0,0,1-2.57,2,19,19,0,0,1-4.23,2,13.67,13.67,0,0,1-5.71.67,5.64,5.64,0,0,1-3.77-2c-0.62-.69-0.14-1.44.17-2a7.07,7.07,0,0,1,6.26-3.75,20.65,20.65,0,0,1,9,1.79A10.55,10.55,0,0,0-54.77,283Z" transform="translate(291.36 13.08)"/><path class="cls-12" d="M-167.78,213.35l0.73-5.23c0.08-.54.32-0.73,0.76-0.3,2.41,2.39,4.86,4.75,6.5,7.78,1.2,2.21,1.7,4.5.51,6.9-0.62,1.24-.71,1.28-2.09,1.08a6.9,6.9,0,0,1-5.68-5.56C-167.42,216.48-167.55,214.9-167.78,213.35Z" transform="translate(291.36 13.08)"/><path class="cls-12" d="M-145.18,226.77c-2.12,3.53-4.22,6.77-7.46,9.05a6.62,6.62,0,0,1-6.56,1,1.09,1.09,0,0,1-.79-1.06A6.58,6.58,0,0,1-157.7,230a10.22,10.22,0,0,1,2.4-1.59C-152.13,226.87-148.78,226.87-145.18,226.77Z" transform="translate(291.36 13.08)"/><path class="cls-12" d="M-158.8,194.61c2.55,3.23,4.9,6.41,5.86,10.36a6.57,6.57,0,0,1-1.5,6.32,1,1,0,0,1-1.14.34c-3.13-.86-4.7-3-5.14-6.11C-161.25,201.74-160.31,198.2-158.8,194.61Z" transform="translate(291.36 13.08)"/><path class="cls-12" d="M-61.61,194.65a23,23,0,0,1,2,6.9,12.81,12.81,0,0,1-.44,5.69,6.55,6.55,0,0,1-4.82,4.42,0.91,0.91,0,0,1-1-.34,6.84,6.84,0,0,1-1.36-7,25.92,25.92,0,0,1,4.37-8C-62.53,195.76-62.09,195.24-61.61,194.65Z" transform="translate(291.36 13.08)"/><path class="cls-12" d="M-75.22,304.43a24,24,0,0,1-7.92,1.94,11.79,11.79,0,0,1-5.23-.74,6.4,6.4,0,0,1-3.84-4.56,1.15,1.15,0,0,1,.29-0.94c2.11-2.06,4.62-2.27,7.31-1.42A27.48,27.48,0,0,1-75.22,304.43Z" transform="translate(291.36 13.08)"/><path class="cls-12" d="M-165.36,283.12c4-1.26,8-2.54,12.22-1.87a6.35,6.35,0,0,1,4.83,3.39,1,1,0,0,1-.07,1.26,6.78,6.78,0,0,1-7.37,2.78,19.43,19.43,0,0,1-9.54-5.32A0.78,0.78,0,0,1-165.36,283.12Z" transform="translate(291.36 13.08)"/><path class="cls-12" d="M-145.2,304.45c3.2-2.68,6.43-5.08,10.5-6a6.55,6.55,0,0,1,6.21,1.65,0.94,0.94,0,0,1,.29,1.09,6.71,6.71,0,0,1-5.81,5,18.47,18.47,0,0,1-9-1C-143.7,305-144.4,304.74-145.2,304.45Z" transform="translate(291.36 13.08)"/><path class="cls-12" d="M-64.56,295a21.46,21.46,0,0,1-8.3,3.3A10.09,10.09,0,0,1-78,298a6.45,6.45,0,0,1-3.88-4,0.87,0.87,0,0,1,.12-0.71,5.78,5.78,0,0,1,4.63-2.53,16.86,16.86,0,0,1,4,.43,28.48,28.48,0,0,1,8.17,3.59C-64.8,294.86-64.71,294.94-64.56,295Z" transform="translate(291.36 13.08)"/><path class="cls-12" d="M-156,295c3.95-2.17,7.72-4.28,12.24-4.27a6.34,6.34,0,0,1,4.95,2.4,0.88,0.88,0,0,1,.17,1,6.64,6.64,0,0,1-6.14,4.3,17.59,17.59,0,0,1-9.21-2.33C-154.56,295.83-155.16,295.46-156,295Z" transform="translate(291.36 13.08)"/><path class="cls-12" d="M-80.95,217c1.66-.2,3.11-0.43,4.58-0.54a18.91,18.91,0,0,1,7.86.69,6.5,6.5,0,0,1,4.25,4.2,0.86,0.86,0,0,1-.22,1.11c-0.61.4-.52,1.35-1.39,1.58a9.86,9.86,0,0,1-6.46,0C-75.84,222.56-78.48,220.07-80.95,217Z" transform="translate(291.36 13.08)"/><path class="cls-12" d="M-46.89,268c-2.32,3.6-4.91,6.67-9,8.07a6.43,6.43,0,0,1-7.09-1.67,0.92,0.92,0,0,1-.28-1c0.72-2.63,2.65-3.94,5.07-4.63A31.4,31.4,0,0,1-46.89,268Z" transform="translate(291.36 13.08)"/><path class="cls-12" d="M-173.37,267.83c1.69,0,3.38-.06,5.06,0a21.16,21.16,0,0,1,7.2,1.29,6.22,6.22,0,0,1,3.93,4.2,0.94,0.94,0,0,1-.26,1,6.68,6.68,0,0,1-8,1.36,17.39,17.39,0,0,1-7.16-6.33c-0.3-.43-0.58-0.88-0.86-1.32Z" transform="translate(291.36 13.08)"/><path class="cls-12" d="M-53.67,207.36c0.23,1.23.49,2.31,0.64,3.4a17.68,17.68,0,0,1-.46,8,6.8,6.8,0,0,1-3.78,4.37,9.84,9.84,0,0,1-2.39.55,0.83,0.83,0,0,1-.62-0.34C-62,221-61.87,218.54-60.7,216-59.1,212.62-56.55,210-53.67,207.36Z" transform="translate(291.36 13.08)"/><path class="cls-12" d="M-137.28,190.56c-0.35,1.67-.6,3.2-1,4.69a18.06,18.06,0,0,1-3.22,7.26,6.39,6.39,0,0,1-5.18,2.53,1,1,0,0,1-1.07-.65,6.55,6.55,0,0,1,.55-7.16C-144.77,193.85-141.27,192-137.28,190.56Z" transform="translate(291.36 13.08)"/><path class="cls-12" d="M-176.42,235.9a30.34,30.34,0,0,1,7.7,4.32,20.12,20.12,0,0,1,3.11,3.14,5.74,5.74,0,0,1,1,5,0.86,0.86,0,0,1-.69.71,6.76,6.76,0,0,1-7.7-2.68,18.47,18.47,0,0,1-3.2-8.64C-176.31,237.2-176.35,236.61-176.42,235.9Z" transform="translate(291.36 13.08)"/><path class="cls-12" d="M-44,235.84a22.41,22.41,0,0,1-1.71,7.67,11.68,11.68,0,0,1-2.9,4.24,6.47,6.47,0,0,1-6.6,1.31,1,1,0,0,1-.5-0.59,6.35,6.35,0,0,1,1.76-6.22,22.79,22.79,0,0,1,6.46-4.69C-46.4,237-45.27,236.46-44,235.84Z" transform="translate(291.36 13.08)"/><path class="cls-12" d="M-140.07,217a35.25,35.25,0,0,1-5.72,5.44,13.45,13.45,0,0,1-4.84,2.46,6.38,6.38,0,0,1-5.16-.89,1,1,0,0,1-.49-1,6.63,6.63,0,0,1,4.64-5.89,18.36,18.36,0,0,1,9.71-.5C-141.35,216.71-140.79,216.86-140.07,217Z" transform="translate(291.36 13.08)"/><path class="cls-12" d="M-148.62,237.57c-0.93,2-1.77,3.82-2.68,5.63a14,14,0,0,1-3.11,4.28,5.35,5.35,0,0,1-4.81,1.49,1,1,0,0,1-.62-0.53,6.68,6.68,0,0,1,2.16-7.79,14.8,14.8,0,0,1,7.65-2.93Z" transform="translate(291.36 13.08)"/><path class="cls-12" d="M-71.7,237.55c3.91,0.47,7.59,1.18,10.19,4.36a6.38,6.38,0,0,1,.95,6.6,0.92,0.92,0,0,1-.61.47c-2.43.44-4.24-.67-5.73-2.44a30.42,30.42,0,0,1-4.29-7.75C-71.35,238.41-71.5,238-71.7,237.55Z" transform="translate(291.36 13.08)"/><path class="cls-12" d="M-71.54,247.89c3.41,1.36,6.45,3,8.2,6.19a6.54,6.54,0,0,1-.46,7.23,0.88,0.88,0,0,1-1,.43c-2.69-.46-4-2.32-4.93-4.66a33.38,33.38,0,0,1-1.58-7.32C-71.42,249.19-71.46,248.61-71.54,247.89Z" transform="translate(291.36 13.08)"/><path class="cls-12" d="M-148.8,247.88c-0.25,1.72-.45,3.28-0.72,4.83a17.5,17.5,0,0,1-2,6.2,5.69,5.69,0,0,1-4,2.83,0.88,0.88,0,0,1-1-.41,6.58,6.58,0,0,1-.37-7.41C-155.17,250.77-152.19,249.2-148.8,247.88Z" transform="translate(291.36 13.08)"/><path class="cls-12" d="M-144.68,258.43c-0.16,3.74-.11,7.3-1.5,10.65a5.82,5.82,0,0,1-4.14,3.67,1,1,0,0,1-1.17-.4,6.78,6.78,0,0,1-.44-7.85,13.32,13.32,0,0,1,5.56-5.1C-145.84,259.13-145.34,258.81-144.68,258.43Z" transform="translate(291.36 13.08)"/><path class="cls-12" d="M-134.83,208.18c-2.84,2.31-5.65,4.4-9.15,5.31a5.9,5.9,0,0,1-5.94-1.41,0.85,0.85,0,0,1-.26-1A6.82,6.82,0,0,1-144,206.3,19.52,19.52,0,0,1-134.83,208.18Z" transform="translate(291.36 13.08)"/><path class="cls-12" d="M-75.58,258.57c3.5,1.67,6.47,3.77,7.8,7.55A6.38,6.38,0,0,1-69,272.47a0.76,0.76,0,0,1-.86.32,5.77,5.77,0,0,1-4.63-4.53A47.33,47.33,0,0,1-75.56,262,28.41,28.41,0,0,1-75.58,258.57Z" transform="translate(291.36 13.08)"/><path class="cls-12" d="M-85.57,208.16c3.52-1.42,7-2.5,10.7-1.55A6.34,6.34,0,0,1-70.23,211a0.9,0.9,0,0,1-.27,1.08,5.91,5.91,0,0,1-5.88,1.4,22.35,22.35,0,0,1-7.94-4.32C-84.71,208.9-85.07,208.57-85.57,208.16Z" transform="translate(291.36 13.08)"/><path class="cls-12" d="M-139.25,267c0.37,2.3.76,4.39,1,6.49a12,12,0,0,1-.37,5.27,5.68,5.68,0,0,1-3.25,3.63,0.87,0.87,0,0,1-1-.16,6.48,6.48,0,0,1-2.26-6.68C-144.37,272-142.07,269.51-139.25,267Z" transform="translate(291.36 13.08)"/><path class="cls-12" d="M-96.68,280.79c2,2.91,3.65,6,3.67,9.62a6.42,6.42,0,0,1-3.21,5.78,1,1,0,0,1-1.31,0,6,6,0,0,1-2.54-6,24.92,24.92,0,0,1,3.21-9.27A0.6,0.6,0,0,1-96.68,280.79Z" transform="translate(291.36 13.08)"/><path class="cls-12" d="M-81,267.12c2.71,2.41,5,4.94,5.77,8.5a6.37,6.37,0,0,1-2.32,6.63,1.13,1.13,0,0,1-1,.13,5.86,5.86,0,0,1-3.61-5c-0.46-3,.17-6,0.79-8.94,0.05-.26.12-0.52,0.19-0.78S-81.1,267.4-81,267.12Z" transform="translate(291.36 13.08)"/><path class="cls-12" d="M-123.6,280.61c0.7,1.56,1.43,2.92,1.92,4.35a27.78,27.78,0,0,1,1.29,5,6,6,0,0,1-2.47,6.21,1,1,0,0,1-1.31.06,6.6,6.6,0,0,1-3.21-6.57C-127.12,286.31-125.6,283.48-123.6,280.61Z" transform="translate(291.36 13.08)"/><path class="cls-12" d="M-132.24,274.88c1.51,3.3,3,6.46,3.07,10.05a5.85,5.85,0,0,1-2.69,5.47,0.86,0.86,0,0,1-1.05,0c-2.81-1.69-3.69-4.28-3.22-7.37A17.69,17.69,0,0,1-132.24,274.88Z" transform="translate(291.36 13.08)"/><path class="cls-12" d="M-88.17,274.84a18.16,18.16,0,0,1,3.88,8c0.51,3.13-.28,5.75-3.18,7.53a0.87,0.87,0,0,1-1.06,0,5.7,5.7,0,0,1-2.68-4.68,16.64,16.64,0,0,1,1.42-7.09C-89.31,277.4-88.75,276.2-88.17,274.84Z" transform="translate(291.36 13.08)"/><path class="cls-8" d="M-195,156.33" transform="translate(291.36 13.08)"/><path class="cls-8" d="M-195,156.71a0.38,0.38,0,0,0,0-.75,0.38,0.38,0,0,0,0,.75h0Z" transform="translate(291.36 13.08)"/><path class="cls-8" d="M302.2,254.76a64.41,64.41,0,0,1-23.63,9.48c-20,3.48-39.35-7.41-54.08-20-16-13.69-28.48-31.27-39.34-49.14a331.82,331.82,0,0,0-21.43-30.6q-4.6-6-9.32-11.83l-6.89-4.76q-1.46-.66-2.94-1.27c17.32,15.62,29.49,37.13,41.81,57.36,15.57,25.55,34.69,51.85,63.21,60.88,15.4,4.87,32,4.1,48,1.35,4.61-.8,9.83-2.23,11.86-6.45Z" transform="translate(291.36 13.08)"/><path class="cls-11" d="M302,254.43c-8.54,5.38-18.26,9.4-28.43,10-9.87.59-19.61-2.2-28.38-6.6-16.27-8.17-29.75-21.37-40.95-35.52-11.93-15.08-21-32.07-32.32-47.58-7.61-10.42-14.82-23.23-27.17-28.46-0.36-.15-0.8.27-0.45,0.59,41.46,38,56.22,116,121.92,121.55a117.73,117.73,0,0,0,27-1.16c6-.88,13.18-1.58,16.52-7.33a0.38,0.38,0,0,0-.13-0.51l-7.22-5c-0.4-.28-0.77.37-0.38,0.65l3.23,2.23a17.57,17.57,0,0,1,2.56,1.77c1.11,1.14,1.33.14,0.64,1.68-2.7,6.07-18.29,6.27-23.37,6.74-16.42,1.51-33-.35-47.7-8.24-25.94-14-41.61-40.56-56.39-64.93-7.67-12.64-15.51-25.28-25.12-36.56-2.35-2.76-4.81-5.44-7.39-8-0.6-.59-3.66-2.7-1.88-1.9a13.43,13.43,0,0,1,1.66,1c4.72,2.91,7.72,6.32,11.15,10.69,10.72,13.65,20.26,27.78,29.57,42.4,8.35,13.1,17.64,25.73,28.78,36.61s24.35,20.61,39.47,24.8c15.8,4.37,31.54.31,45.15-8.27A0.38,0.38,0,0,0,302,254.43Z" transform="translate(291.36 13.08)"/><path class="cls-8" d="M192.64,198.15a85.19,85.19,0,0,0-27.77-43.21c-5.47-4.52-11.52-8.37-16.48-13.45s-8.82-11.79-8.45-18.88a7.42,7.42,0,0,1,1.88-5.07c1.77-1.69,4.68-1.69,6.88-.6a16,16,0,0,1,5.32,5c15.81,20.87,21.3,47.66,33.73,70.7" transform="translate(291.36 13.08)"/><path class="cls-11" d="M193,198.05a87,87,0,0,0-18.77-34.61c-4.85-5.43-10.43-9.87-16.19-14.27-7.22-5.51-14.91-11.78-17.16-21-0.79-3.28-1.6-9.91,3.13-11.38,3-.94,5.86,1.26,7.87,3.15,2.94,2.76,5.32,7,7.41,10.47a158.44,158.44,0,0,1,10.3,20.81c5.86,13.93,10.74,28.26,17.84,41.63a0.38,0.38,0,0,0,.65-0.38c-6.95-13.08-11.77-27.09-17.46-40.73a180.6,180.6,0,0,0-8.2-17.4c-3-5.4-6.35-11.84-11-16-2.48-2.18-6.28-3.61-9.25-1.47-3.41,2.45-2.83,7.93-2,11.47,3.34,13.61,17.2,20.32,26.84,28.94a85.81,85.81,0,0,1,25.27,41,0.38,0.38,0,0,0,.72-0.2h0Z" transform="translate(291.36 13.08)"/><path class="cls-8" d="M180.41,205.6a83,83,0,0,1-55-30.4c-5.88-7.38-10.59-16.22-10.62-25.65a3.46,3.46,0,0,1,1-3,3.27,3.27,0,0,1,3.06.06c5.89,2.4,9.47,8.27,12.88,13.64,10.53,16.62,24.11,32.65,42.7,39.1" transform="translate(291.36 13.08)"/><path class="cls-11" d="M180.41,205.23a83.74,83.74,0,0,1-40.18-16.15,78.44,78.44,0,0,1-16.51-16.72A51.42,51.42,0,0,1,118,162.23c-1-2.38-4.24-10.18-2.78-12.68,5.07-8.68,15.87,10.4,18,13.56a139.39,139.39,0,0,0,11.35,15.14c8.22,9.42,18.06,17.22,29.89,21.51,0.45,0.17.65-.56,0.2-0.72-17.26-6.27-29.93-20.07-39.93-35-3.78-5.65-7.07-12.59-13-16.36-3.29-2.09-6.86-2.84-7.21,1.87-1.15,15.31,13.09,30.51,24.1,39.16A84.4,84.4,0,0,0,180.41,206c0.48,0.06.47-.69,0-0.75h0Z" transform="translate(291.36 13.08)"/><path class="cls-8" d="M168.3,187.3a55.91,55.91,0,0,1-27.81-19.66c-1.15-1.53-2.26-3.25-2.29-5.17s1.52-4,3.42-3.77a5.28,5.28,0,0,1,3.09,2.06l21.89,24" transform="translate(291.36 13.08)"/><path class="cls-11" d="M168.4,186.94c-10.63-3.5-21.12-10.14-27.55-19.5a7.62,7.62,0,0,1-1.47-2.43q-2.6-3.79,5.08-4c0.87,0.4,1.92,2.1,2.58,2.82l6.44,7L166.34,185a0.38,0.38,0,0,0,.53-0.53c-6.87-7.52-13.7-15.07-20.6-22.56-2.37-2.57-7.34-6-8.34-.11-0.91,5.35,6.91,11.74,10.34,14.71a58,58,0,0,0,19.94,11.16,0.38,0.38,0,0,0,.2-0.72h0Z" transform="translate(291.36 13.08)"/><path class="cls-8" d="M140.91,147.79c0.35,0,.36.61,0,0.72a1.11,1.11,0,0,1-1-.35c-4.53-3.6-9.1-7.24-12.65-11.8s-6-10.21-5.72-16c0.08-1.47.51-3.17,1.85-3.77,2.09-.93,4.06,1.47,5.07,3.53a185.11,185.11,0,0,1,9.21,22.39" transform="translate(291.36 13.08)"/><path class="cls-11" d="M140.64,148.06c-3.09-3.45-7.61-5.83-10.81-9.33-3.56-3.89-6.55-8.52-7.53-13.77a18.79,18.79,0,0,1-.32-4.58q4.45-5.18,6.22-.05a68.52,68.52,0,0,1,3.15,6.76c2.25,5.09,4.23,10.28,6,15.54,0.16,0.45.88,0.26,0.72-.2-1.42-4.15-2.94-8.25-4.63-12.3-1.55-3.71-3-8.26-5.39-11.51-2.16-2.92-5.63-3.66-6.7.52-1.5,5.84,2.22,13,5.63,17.39a55.92,55.92,0,0,0,8.65,8.61c1.45,1.21,3.27,3.53,5.28,3.73a0.37,0.37,0,0,0,.32-0.19l0.25-.42a0.38,0.38,0,0,0-.06-0.45l-0.27-.3c-0.32-.36-0.85.17-0.53,0.53h0Z" transform="translate(291.36 13.08)"/><path class="cls-8" d="M210.08,190.86c0.17,1,.32,2,0.44,3.07,0.75,6.83.12,13.76,0.91,20.58s3.33,13.9,8.89,17.94L221,217.67c0-1.28,0-2.56,0-3.82C217.52,206.09,213.86,198.45,210.08,190.86Z" transform="translate(291.36 13.08)"/><path class="cls-11" d="M209.72,191c2.18,13.9-2.3,31.7,10.33,41.74a0.38,0.38,0,0,0,.64-0.27c0.21-4.69.49-9.39,0.64-14.09,0.13-3.88-.45-5.62-2.06-9.16-2.84-6.23-5.82-12.39-8.87-18.52-0.21-.43-0.86-0.05-0.65.38,2.32,4.67,4.61,9.36,6.82,14.08,1.94,4.15,4,7.92,4,12.61,0,3.92-.36,7.89-0.54,11.81-0.12,2.73.32,3.26-1.69,0.71a28.59,28.59,0,0,1-6-12.2c-1.93-9-.54-18.27-2-27.3C210.37,190.29,209.64,190.49,209.72,191Z" transform="translate(291.36 13.08)"/><path class="cls-8" d="M192,232.8c0.72,0.27,1.43.55,2.13,0.87l-1.24-1.27L180.59,220c-3.24-3.27-6.65-6.65-11-8.13-0.93-.32-2.1-0.48-2.77.23a2.36,2.36,0,0,0-.53,1.37c-0.54,4.42,3.22,8.12,6.91,10.62a61.92,61.92,0,0,0,14,7.07A14.85,14.85,0,0,1,192,232.8Z" transform="translate(291.36 13.08)"/><path class="cls-11" d="M191.93,233.16l2,0.83a0.38,0.38,0,0,0,.45-0.59c-5.54-5.68-11-11.66-16.89-17-2-1.83-7.95-7.22-10.95-4.7-3.35,2.8,2,9,3.92,10.71,6.29,5.51,14.06,7.21,21.35,10.66,0.43,0.21.81-.44,0.38-0.65-5-2.37-10.29-3.64-15.16-6.45a33.6,33.6,0,0,1-7.17-5.13L168,218.65q-2.44-2.42.13-4.48,0.63-3.09,2.65-1.38a11.92,11.92,0,0,1,2.64,1.4c4.67,3,8.48,7.67,12.34,11.57,2.16,2.19,4.37,5.11,6.85,6.92,1.51,1.1.77,0.27-.52-0.23C191.68,232.27,191.49,233,191.93,233.16Z" transform="translate(291.36 13.08)"/><path class="cls-8" d="M200.32,195.69a50.8,50.8,0,0,1-6.1-22.59c-0.05-1.68,1.08-4.07,2.54-3.23a2.39,2.39,0,0,1,.87,1.23,43.2,43.2,0,0,1,3.09,20.61" transform="translate(291.36 13.08)"/><path class="cls-11" d="M200.64,195.5a54.26,54.26,0,0,1-4.33-10.85c-0.77-2.82-2.56-8-1.68-10.71q-0.54-2.47,3.27-1.1l0.57,1.66a20.81,20.81,0,0,1,1.3,5.09,45.66,45.66,0,0,1,.57,12.12c0,0.48.71,0.48,0.75,0,0.21-2.74-.25-24.6-5.71-22.09-2.66,1.22-1.37,6.73-1.12,8.62A53.43,53.43,0,0,0,200,195.88a0.38,0.38,0,0,0,.65-0.38h0Z" transform="translate(291.36 13.08)"/><path class="cls-8" d="M139.15,208.57l-1.05-.43a6.76,6.76,0,0,0-1.39,1.91A86.23,86.23,0,0,0,148.13,214,38.28,38.28,0,0,0,139.15,208.57Z" transform="translate(291.36 13.08)"/><path class="cls-11" d="M139.25,208.21l-1.05-.43a0.37,0.37,0,0,0-.36.1,9,9,0,0,0-1.45,2,0.38,0.38,0,0,0,.22.55A92.66,92.66,0,0,0,148,214.33a0.38,0.38,0,0,0,.29-0.69,41.37,41.37,0,0,0-9-5.39c-0.44-.19-0.82.46-0.38,0.65a41.37,41.37,0,0,1,9,5.39l0.29-.69a92.66,92.66,0,0,1-11.42-3.91l0.22,0.55c0.53-1,.85-1.79,2-1.31C139.5,209.12,139.69,208.39,139.25,208.21Z" transform="translate(291.36 13.08)"/><path class="cls-8" d="M187.83,172.22a27.9,27.9,0,0,1-8.39-20.16c0-2.58,1.48-6,4-5.4,1.91,0.42,2.51,2.81,2.73,4.76l2.9,25.69" transform="translate(291.36 13.08)"/><path class="cls-11" d="M188.09,172a28.44,28.44,0,0,1-7-11.32,25,25,0,0,1-1.28-7l0-1.6q-0.32-5,5.8-1.75c0.64,1,.68,5.63.84,7l0.67,5.93,1.56,13.83c0.05,0.47.8,0.48,0.75,0-1-8.57-1.57-17.27-2.92-25.79-0.34-2.18-1.29-5.74-4.29-5-3.55.88-3.29,6.43-3,9a29,29,0,0,0,8.34,17.13,0.38,0.38,0,0,0,.53-0.53h0Z" transform="translate(291.36 13.08)"/></svg>